<svg xmlns="http://www.w3.org/2000/svg" viewBox="0 0 1024 1024">
  <defs>
    <clipPath id="clip-0">
      <path style="stroke-width: 3px; fill: rgb(255, 255, 255);" d="M 100 724 L 100 300 C 100 185.001 170 99.995 300.026 100 L 724 99.995 C 854 100 924 185.001 924 300 L 924 724 C 924 839.001 854 923.995 724 924 L 300.026 924 C 170 924 100 839.001 100 724 Z"/>
    </clipPath>
  </defs>
  <g style="clip-path: url(#clip-0);">
    <path style="stroke-width: 3px; fill: rgb(255, 255, 255);" d="M 100 724 L 100 300 C 100 185.001 170 99.995 300.026 100 L 724 99.995 C 854 100 924 185.001 924 300 L 924 724 C 924 839.001 854 923.995 724 924 L 300.026 924 C 170 924 100 839.001 100 724 Z"/>
  </g>
  <g transform-origin="520 512" transform="scale(0.52735)">
    <path d="M 225 14 C -54 103 116 568 439 600 L 468 603 L 469 400 C 470 170 469 152 451 115 C 410 33 310 -12 225 14 M 84 535 C 84 678 97 712 107 746 C 174 945 336 1032 600 1012 C 839 993 1007 775 881 657 C 851 636 843 632 626 632 C 404 629 392 627 311 597 C 221 562 134 479 97 379 C 84 337 84 367 84 535" stroke="none" fill="#000000" fill-rule="evenodd"/>
  </g>
</svg>
