<svg xmlns="http://www.w3.org/2000/svg" viewBox="0 0 1024 1024">
  <rect width="1024" height="1024" style="fill: rgb(255, 255, 255);"/>
  <g transform-origin="520 512" transform="scale(0.52735)">
    <path d="M 225 14 C -54 103 116 568 439 600 L 468 603 L 469 400 C 470 170 469 152 451 115 C 410 33 310 -12 225 14 M 84 535 C 84 678 97 712 107 746 C 174 945 336 1032 600 1012 C 839 993 1007 775 881 657 C 851 636 843 632 626 632 C 404 629 392 627 311 597 C 221 562 134 479 97 379 C 84 337 84 367 84 535" stroke="none" fill="#000000" fill-rule="evenodd"/>
  </g>
</svg>
